<?xml version="1.0" encoding="UTF-8"?>
<svg width="189px" height="221px" viewBox="0 0 189 221" version="1.1" xmlns="http://www.w3.org/2000/svg" xmlns:xlink="http://www.w3.org/1999/xlink">
    <!-- Generator: Sketch 48.2 (47327) - http://www.bohemiancoding.com/sketch -->
    <title>Combined Shape</title>
    <desc>Created with Sketch.</desc>
    <defs></defs>
    <g id="primary-brands" stroke="none" stroke-width="1" fill="none" fill-rule="evenodd">
        <path d="M189,221 L132.768595,221 L85.9090909,150.28 L48.1090909,150.28 L48.1090909,221 L0,221 L0,0 L99.9669421,0 C126.00013,0 146.253647,6.41945961 160.728099,19.2585714 C175.202552,32.0976832 182.439669,49.9879805 182.439669,72.93 L182.439669,73.5614286 C182.439669,91.4519942 178.118225,106.027325 169.475207,117.287857 C160.832188,128.54839 149.533954,136.809498 135.580165,142.071429 L189,221 Z M130.380642,74.8047753 L130.380642,74.1839888 C130.380642,63.8374951 127.131313,56.0777412 120.632557,50.9044944 C114.133801,45.7312475 105.096603,43.1446629 93.5206942,43.1446629 L46.9126609,43.1446629 L46.9126609,105.533708 L94.4345772,105.533708 C106.010486,105.533708 114.895371,102.740196 121.089498,97.1530899 C127.283625,91.5659833 130.380642,84.1166196 130.380642,74.8047753 Z" id="Combined-Shape" fill="#13AB67"></path>
    </g>
</svg>