<?xml version="1.0" encoding="UTF-8"?>
<svg width="100px" height="89px" viewBox="0 0 100 89" version="1.1" xmlns="http://www.w3.org/2000/svg" xmlns:xlink="http://www.w3.org/1999/xlink">
    <!-- Generator: Sketch 48.2 (47327) - http://www.bohemiancoding.com/sketch -->
    <title>customer-1</title>
    <desc>Created with Sketch.</desc>
    <defs></defs>
    <g id="Artboard-5-Copy" stroke="none" stroke-width="1" fill="none" fill-rule="evenodd" transform="translate(-746.000000, -1785.000000)">
        <g id="customer-1" transform="translate(746.000000, 1785.000000)">
            <rect id="Rectangle" fill="#13AB67" transform="translate(43.359375, 47.265625) scale(-1, 1) rotate(-5.000000) translate(-43.359375, -47.265625) " x="29.6875" y="31.25" width="27.34375" height="32.03125"></rect>
            <g id="Group" fill="#000000" fill-rule="nonzero">
                <path d="M90.15625,31.171875 C90.15625,30.859375 89.921875,30.546875 89.53125,30.546875 C89.21875,30.546875 88.90625,30.78125 88.90625,31.171875 L88.90625,43.515625 C88.90625,43.828125 89.140625,44.140625 89.53125,44.140625 C89.84375,44.140625 90.15625,43.90625 90.15625,43.515625 L90.15625,31.171875 Z" id="Shape"></path>
                <path d="M89.609375,46.953125 C89.296875,46.953125 88.984375,47.1875 88.984375,47.578125 L88.984375,51.5625 C88.984375,51.875 89.21875,52.1875 89.609375,52.1875 C89.921875,52.1875 90.234375,51.953125 90.234375,51.5625 L90.234375,47.578125 C90.15625,47.265625 89.921875,46.953125 89.609375,46.953125 Z" id="Shape"></path>
                <path d="M50,5.234375 C50.078125,5.3125 50.234375,5.390625 50.390625,5.390625 C50.546875,5.390625 50.703125,5.3125 50.78125,5.234375 C51.015625,5 51.015625,4.609375 50.78125,4.375 L49.296875,2.890625 C49.0625,2.65625 48.671875,2.65625 48.4375,2.890625 C48.203125,3.125 48.203125,3.515625 48.4375,3.75 L50,5.234375 Z" id="Shape"></path>
                <path d="M54.609375,9.921875 C54.6875,10 54.84375,10.078125 55,10.078125 C55.15625,10.078125 55.3125,10 55.390625,9.921875 C55.625,9.6875 55.625,9.296875 55.390625,9.0625 L53.90625,7.578125 C53.671875,7.34375 53.28125,7.34375 53.046875,7.578125 C52.8125,7.8125 52.8125,8.203125 53.046875,8.4375 L54.609375,9.921875 Z" id="Shape"></path>
                <path d="M48.90625,10.078125 C49.0625,10.078125 49.21875,10 49.296875,9.921875 L50.78125,8.4375 C51.015625,8.203125 51.015625,7.8125 50.78125,7.578125 C50.546875,7.34375 50.15625,7.34375 49.921875,7.578125 L48.4375,9.0625 C48.203125,9.296875 48.203125,9.6875 48.4375,9.921875 C48.671875,10.078125 48.75,10.078125 48.90625,10.078125 Z" id="Shape"></path>
                <path d="M53.59375,5.390625 C53.75,5.390625 53.90625,5.3125 53.984375,5.234375 L55.46875,3.75 C55.703125,3.515625 55.703125,3.125 55.46875,2.890625 C55.234375,2.65625 54.84375,2.65625 54.609375,2.890625 L53.125,4.375 C52.890625,4.609375 52.890625,5 53.125,5.234375 C53.28125,5.390625 53.4375,5.390625 53.59375,5.390625 Z" id="Shape"></path>
                <path d="M58.671875,81.796875 C58.4375,81.5625 58.046875,81.5625 57.8125,81.796875 C57.578125,82.03125 57.578125,82.421875 57.8125,82.65625 L59.296875,84.140625 C59.375,84.21875 59.53125,84.296875 59.6875,84.296875 C59.84375,84.296875 60,84.21875 60.078125,84.140625 C60.3125,83.90625 60.3125,83.515625 60.078125,83.28125 L58.671875,81.796875 Z" id="Shape"></path>
                <path d="M63.359375,86.484375 C63.125,86.25 62.734375,86.25 62.5,86.484375 C62.265625,86.71875 62.265625,87.109375 62.5,87.34375 L63.984375,88.828125 C64.0625,88.90625 64.21875,88.984375 64.375,88.984375 C64.53125,88.984375 64.6875,88.90625 64.765625,88.828125 C65,88.59375 65,88.203125 64.765625,87.96875 L63.359375,86.484375 Z" id="Shape"></path>
                <path d="M59.296875,86.484375 L57.8125,87.890625 C57.578125,88.125 57.578125,88.515625 57.8125,88.75 C57.890625,88.828125 58.046875,88.90625 58.203125,88.90625 C58.359375,88.90625 58.515625,88.828125 58.59375,88.75 L60.078125,87.265625 C60.3125,87.03125 60.3125,86.640625 60.078125,86.40625 C59.921875,86.25 59.53125,86.25 59.296875,86.484375 Z" id="Shape"></path>
                <path d="M63.984375,81.796875 L62.5,83.28125 C62.265625,83.515625 62.265625,83.90625 62.5,84.140625 C62.578125,84.21875 62.734375,84.296875 62.890625,84.296875 C63.046875,84.296875 63.203125,84.21875 63.28125,84.140625 L64.765625,82.65625 C65,82.421875 65,82.03125 64.765625,81.796875 C64.53125,81.5625 64.21875,81.640625 63.984375,81.796875 Z" id="Shape"></path>
                <path d="M7.890625,16.5625 C5.9375,16.5625 4.375,18.125 4.375,20.078125 C4.375,22.03125 5.9375,23.59375 7.890625,23.59375 C9.84375,23.59375 11.40625,22.03125 11.40625,20.078125 C11.328125,18.125 9.765625,16.5625 7.890625,16.5625 Z M7.890625,22.34375 C6.640625,22.34375 5.546875,21.328125 5.546875,20 C5.546875,18.75 6.5625,17.65625 7.890625,17.65625 C9.140625,17.65625 10.234375,18.671875 10.234375,20 C10.15625,21.328125 9.140625,22.34375 7.890625,22.34375 Z" id="Shape"></path>
                <path d="M77.578125,58.515625 C77.578125,56.796875 76.171875,55.390625 74.453125,55.390625 C72.734375,55.390625 71.328125,56.796875 71.328125,58.515625 C71.328125,60.234375 72.734375,61.640625 74.453125,61.640625 C76.171875,61.71875 77.578125,60.3125 77.578125,58.515625 Z M74.453125,60.546875 C73.359375,60.546875 72.5,59.6875 72.5,58.59375 C72.5,57.5 73.359375,56.640625 74.453125,56.640625 C75.546875,56.640625 76.40625,57.5 76.40625,58.59375 C76.40625,59.609375 75.546875,60.546875 74.453125,60.546875 Z" id="Shape"></path>
                <path d="M18.59375,81.640625 C16.875,81.640625 15.46875,83.046875 15.46875,84.765625 C15.46875,86.484375 16.875,87.890625 18.59375,87.890625 C20.3125,87.890625 21.71875,86.484375 21.71875,84.765625 C21.71875,83.046875 20.3125,81.640625 18.59375,81.640625 Z M18.59375,86.71875 C17.5,86.71875 16.640625,85.859375 16.640625,84.765625 C16.640625,83.671875 17.5,82.8125 18.59375,82.8125 C19.6875,82.8125 20.546875,83.671875 20.546875,84.765625 C20.546875,85.859375 19.609375,86.71875 18.59375,86.71875 Z" id="Shape"></path>
                <path d="M11.328125,6.484375 C11.328125,6.796875 11.5625,7.109375 11.953125,7.109375 L25.3125,7.109375 C25.625,7.109375 25.9375,6.875 25.9375,6.484375 C25.9375,6.09375 25.703125,5.859375 25.3125,5.859375 L11.875,5.859375 C11.5625,5.859375 11.328125,6.09375 11.328125,6.484375 Z" id="Shape"></path>
                <path d="M3.203125,7.03125 L7.5,7.03125 C7.8125,7.03125 8.125,6.796875 8.125,6.40625 C8.125,6.015625 7.890625,5.78125 7.5,5.78125 L3.203125,5.78125 C2.890625,5.78125 2.578125,6.015625 2.578125,6.40625 C2.578125,6.796875 2.890625,7.03125 3.203125,7.03125 Z" id="Shape"></path>
                <path d="M3.203125,2.5 L12.5,2.5 C12.8125,2.5 13.125,2.265625 13.125,1.875 C13.125,1.484375 12.8125,1.328125 12.5,1.328125 L3.203125,1.328125 C2.890625,1.328125 2.65625,1.5625 2.65625,1.875 C2.65625,2.1875 2.890625,2.5 3.203125,2.5 Z" id="Shape"></path>
                <path d="M16.484375,2.5 L19.53125,2.5 C19.84375,2.5 20.15625,2.265625 20.15625,1.875 C20.15625,1.484375 19.84375,1.328125 19.53125,1.328125 L16.5625,1.328125 C16.25,1.328125 15.9375,1.5625 15.9375,1.953125 C15.9375,2.34375 16.171875,2.5 16.484375,2.5 Z" id="Shape"></path>
                <path d="M90.9375,70.703125 C90.9375,70.390625 90.703125,70.078125 90.3125,70.078125 L77.03125,70.078125 C76.71875,70.078125 76.40625,70.3125 76.40625,70.703125 C76.40625,71.09375 76.640625,71.328125 77.03125,71.328125 L90.390625,71.328125 C90.625,71.328125 90.9375,71.015625 90.9375,70.703125 Z" id="Shape"></path>
                <path d="M94.6875,71.328125 L98.984375,71.328125 C99.296875,71.328125 99.609375,71.09375 99.609375,70.703125 C99.609375,70.3125 99.375,70.078125 98.984375,70.078125 L94.6875,70.078125 C94.375,70.078125 94.0625,70.3125 94.0625,70.703125 C94.0625,71.09375 94.375,71.328125 94.6875,71.328125 Z" id="Shape"></path>
                <path d="M98.984375,74.6875 L89.6875,74.6875 C89.375,74.6875 89.0625,74.921875 89.0625,75.3125 C89.0625,75.625 89.296875,75.9375 89.6875,75.9375 L98.984375,75.9375 C99.296875,75.9375 99.609375,75.703125 99.609375,75.3125 C99.609375,75 99.375,74.6875 98.984375,74.6875 Z" id="Shape"></path>
                <path d="M85.703125,74.6875 L82.734375,74.6875 C82.421875,74.6875 82.109375,74.921875 82.109375,75.3125 C82.109375,75.625 82.34375,75.9375 82.734375,75.9375 L85.703125,75.9375 C86.015625,75.9375 86.328125,75.703125 86.328125,75.3125 C86.328125,75 86.09375,74.6875 85.703125,74.6875 Z" id="Shape"></path>
                <path d="M77.421875,12.1875 L76.484375,18.28125 C76.484375,18.515625 76.5625,18.75 76.71875,18.828125 C76.875,18.984375 77.109375,18.984375 77.34375,18.90625 L82.8125,16.09375 L88.28125,18.90625 C88.359375,18.984375 88.4375,18.984375 88.515625,18.984375 C88.671875,18.984375 88.75,18.984375 88.828125,18.90625 C88.984375,18.75 89.0625,18.59375 89.0625,18.359375 L88.125,12.265625 L92.5,7.890625 C92.65625,7.734375 92.734375,7.5 92.65625,7.265625 C92.578125,7.03125 92.421875,6.875 92.1875,6.875 L86.09375,5.9375 L83.28125,0.46875 C83.046875,0.078125 82.421875,0.078125 82.265625,0.46875 L79.453125,5.9375 L73.4375,6.875 C73.203125,6.875 73.046875,7.03125 72.96875,7.265625 C72.890625,7.5 72.96875,7.734375 73.125,7.890625 L77.421875,12.1875 Z M80,7.03125 C80.15625,7.03125 80.3125,6.875 80.46875,6.71875 L82.890625,1.953125 L85.3125,6.71875 C85.390625,6.875 85.546875,7.03125 85.78125,7.03125 L91.015625,7.890625 L87.265625,11.640625 C87.109375,11.796875 87.109375,11.953125 87.109375,12.1875 L87.96875,17.421875 L83.203125,15 C83.125,14.921875 83.046875,14.921875 82.96875,14.921875 C82.890625,14.921875 82.8125,14.921875 82.734375,15 L77.96875,17.421875 L78.828125,12.1875 C78.828125,12.03125 78.828125,11.796875 78.671875,11.640625 L74.6875,7.8125 L80,7.03125 Z" id="Shape"></path>
                <path d="M14.296875,62.34375 L10.078125,61.71875 L8.125,57.890625 C8.046875,57.65625 7.8125,57.578125 7.578125,57.578125 C7.34375,57.578125 7.1875,57.734375 7.03125,57.890625 L5.15625,61.71875 L0.9375,62.421875 C0.703125,62.421875 0.546875,62.578125 0.46875,62.8125 C0.390625,63.046875 0.46875,63.28125 0.625,63.4375 L3.59375,66.40625 L2.890625,70.625 C2.890625,70.859375 2.96875,71.09375 3.125,71.171875 C3.28125,71.328125 3.515625,71.328125 3.75,71.25 L7.578125,69.296875 L11.40625,71.25 C11.484375,71.328125 11.5625,71.328125 11.640625,71.328125 C11.796875,71.328125 11.875,71.328125 11.953125,71.25 C12.109375,71.09375 12.1875,70.9375 12.1875,70.703125 L11.5625,66.40625 L14.609375,63.359375 C14.765625,63.203125 14.84375,62.96875 14.765625,62.734375 C14.6875,62.578125 14.53125,62.421875 14.296875,62.34375 Z M10.546875,65.78125 C10.390625,65.9375 10.390625,66.09375 10.390625,66.328125 L10.9375,69.6875 L7.890625,68.125 C7.734375,68.046875 7.5,68.046875 7.34375,68.125 L4.296875,69.6875 L4.84375,66.328125 C4.84375,66.171875 4.84375,65.9375 4.6875,65.78125 L2.265625,63.359375 L5.625,62.8125 C5.78125,62.8125 5.9375,62.65625 6.09375,62.5 L7.65625,59.453125 L9.21875,62.5 C9.296875,62.65625 9.453125,62.8125 9.6875,62.8125 L13.046875,63.359375 L10.546875,65.78125 Z" id="Shape"></path>
                <path d="M73.4375,50.15625 C73.59375,50.15625 73.75,50.078125 73.90625,50 C76.796875,46.796875 79.21875,43.28125 81.09375,39.53125 C81.25,39.21875 81.171875,38.90625 80.859375,38.75 C76.640625,36.25 73.046875,32.421875 69.609375,28.75 C64.609375,23.359375 59.453125,17.890625 52.1875,16.25 C52.1875,16.25 52.109375,16.25 52.109375,16.25 C52.109375,16.25 52.03125,16.25 52.03125,16.25 C52.03125,16.25 52.03125,16.25 51.953125,16.25 C51.875,16.25 51.875,16.25 51.796875,16.25 C51.796875,16.25 51.71875,16.25 51.71875,16.25 C51.71875,16.25 51.640625,16.328125 51.640625,16.328125 C51.640625,16.328125 51.5625,16.40625 51.5625,16.40625 C51.5625,16.40625 51.484375,16.484375 51.484375,16.484375 C51.484375,16.484375 51.484375,16.5625 51.40625,16.5625 C51.40625,16.5625 51.40625,16.5625 51.40625,16.640625 C51.40625,16.640625 51.40625,16.71875 51.40625,16.71875 C51.40625,16.71875 51.40625,16.796875 51.40625,16.796875 C51.40625,18.046875 47.890625,19.53125 43.203125,19.53125 C38.515625,19.53125 35,18.125 35,16.796875 C35,16.484375 34.765625,16.25 34.53125,16.25 C34.53125,16.25 34.53125,16.25 34.453125,16.25 C34.453125,16.25 34.453125,16.25 34.375,16.25 C34.375,16.25 34.375,16.25 34.296875,16.25 C34.296875,16.25 34.21875,16.25 34.21875,16.25 C26.953125,17.890625 21.796875,23.4375 16.796875,28.75 C13.359375,32.421875 9.765625,36.25 5.546875,38.75 C5.3125,38.90625 5.15625,39.21875 5.3125,39.53125 C7.1875,43.28125 9.609375,46.796875 12.5,50 C12.578125,50.15625 12.8125,50.15625 12.96875,50.15625 C13.046875,50.15625 13.203125,50.15625 13.28125,50.078125 C17.5,47.421875 20.78125,44.453125 22.8125,41.5625 L22.8125,73.515625 C22.8125,75.859375 24.6875,77.8125 27.109375,77.8125 C27.1875,77.8125 38.671875,77.5 42.421875,77.265625 C42.96875,77.265625 43.515625,77.265625 44.0625,77.265625 C47.890625,77.5 59.296875,77.8125 59.375,77.8125 C61.71875,77.8125 63.671875,75.9375 63.671875,73.515625 L63.671875,41.5625 C65.703125,44.453125 68.984375,47.421875 73.125,50 C73.203125,50.078125 73.28125,50.15625 73.4375,50.15625 Z M63.59375,39.140625 C63.4375,38.828125 63.125,38.75 62.8125,38.90625 C62.5,39.0625 62.421875,39.375 62.578125,39.6875 C62.578125,39.765625 62.5,39.84375 62.5,39.921875 L62.5,73.4375 C62.5,75.15625 61.09375,76.484375 59.453125,76.484375 C59.375,76.484375 47.890625,76.171875 44.140625,75.9375 C43.59375,75.9375 42.96875,75.9375 42.421875,75.9375 C38.671875,76.171875 27.265625,76.484375 27.109375,76.484375 C25.390625,76.484375 24.0625,75.078125 24.0625,73.4375 L24.0625,39.921875 C24.0625,39.84375 24.0625,39.6875 23.984375,39.609375 C24.140625,39.296875 23.984375,38.984375 23.671875,38.828125 C23.359375,38.671875 23.046875,38.828125 22.890625,39.0625 C21.328125,42.265625 17.8125,45.703125 13.125,48.671875 C10.546875,45.78125 8.4375,42.65625 6.71875,39.375 C10.859375,36.796875 14.375,33.046875 17.734375,29.453125 C22.65625,24.21875 27.421875,19.140625 34.0625,17.5 C34.84375,19.609375 39.140625,20.703125 43.28125,20.703125 C47.34375,20.703125 51.640625,19.609375 52.5,17.5 C59.0625,19.140625 63.75,24.21875 68.75,29.53125 C72.109375,33.125 75.625,36.875 79.765625,39.453125 C78.046875,42.8125 75.859375,45.9375 73.359375,48.75 C68.59375,45.78125 65.15625,42.34375 63.59375,39.140625 Z" id="Shape"></path>
                <path d="M53.75,17.96875 C53.4375,17.8125 53.125,17.890625 52.96875,18.203125 C52.34375,19.375 51.640625,20.234375 50.9375,20.703125 C50,21.328125 48.90625,22.109375 47.65625,22.421875 C46.328125,22.734375 44.84375,22.96875 43.28125,22.96875 C41.71875,22.96875 40.234375,22.8125 38.90625,22.421875 C37.65625,22.109375 36.484375,21.328125 35.625,20.703125 C34.921875,20.234375 34.21875,19.375 33.59375,18.203125 C33.4375,17.890625 33.046875,17.8125 32.8125,17.96875 C32.5,18.125 32.421875,18.515625 32.578125,18.75 C33.28125,20.078125 34.140625,21.015625 35,21.640625 C36.015625,22.34375 37.1875,23.203125 38.671875,23.59375 C40.078125,23.984375 41.640625,24.140625 43.359375,24.140625 C45.078125,24.140625 46.640625,23.984375 48.046875,23.59375 C49.53125,23.203125 50.703125,22.34375 51.71875,21.640625 C52.578125,21.015625 53.4375,20.078125 54.140625,18.75 C54.140625,18.4375 54.0625,18.125 53.75,17.96875 Z" id="Shape"></path>
                <path d="M56.015625,60.859375 C55.703125,60.859375 55.390625,61.09375 55.390625,61.484375 L55.390625,61.71875 L55.15625,61.71875 C54.84375,61.71875 54.53125,61.953125 54.53125,62.34375 C54.53125,62.734375 54.765625,62.96875 55.15625,62.96875 L55.9375,62.96875 C56.25,62.96875 56.5625,62.734375 56.5625,62.34375 L56.5625,61.5625 C56.5625,61.09375 56.328125,60.859375 56.015625,60.859375 Z" id="Shape"></path>
                <path d="M36.40625,61.640625 L34.6875,61.640625 C34.375,61.640625 34.0625,61.875 34.0625,62.265625 C34.0625,62.65625 34.296875,62.890625 34.6875,62.890625 L36.40625,62.890625 C36.71875,62.890625 37.03125,62.65625 37.03125,62.265625 C37.03125,61.875 36.71875,61.640625 36.40625,61.640625 Z" id="Shape"></path>
                <path d="M41.5625,61.640625 L39.84375,61.640625 C39.53125,61.640625 39.21875,61.875 39.21875,62.265625 C39.21875,62.65625 39.453125,62.890625 39.84375,62.890625 L41.5625,62.890625 C41.875,62.890625 42.1875,62.65625 42.1875,62.265625 C42.1875,61.875 41.875,61.640625 41.5625,61.640625 Z" id="Shape"></path>
                <path d="M46.640625,61.640625 L44.921875,61.640625 C44.609375,61.640625 44.296875,61.875 44.296875,62.265625 C44.296875,62.65625 44.53125,62.890625 44.921875,62.890625 L46.640625,62.890625 C46.953125,62.890625 47.265625,62.65625 47.265625,62.265625 C47.265625,61.875 46.953125,61.640625 46.640625,61.640625 Z" id="Shape"></path>
                <path d="M51.796875,61.640625 L50.078125,61.640625 C49.765625,61.640625 49.453125,61.875 49.453125,62.265625 C49.453125,62.65625 49.6875,62.890625 50.078125,62.890625 L51.796875,62.890625 C52.109375,62.890625 52.421875,62.65625 52.421875,62.265625 C52.421875,61.875 52.109375,61.640625 51.796875,61.640625 Z" id="Shape"></path>
                <path d="M31.25,61.640625 L31.015625,61.640625 L31.015625,61.40625 C31.015625,61.09375 30.78125,60.78125 30.390625,60.78125 C30.078125,60.78125 29.765625,61.015625 29.765625,61.40625 L29.765625,62.1875 C29.765625,62.5 30,62.8125 30.390625,62.8125 L31.171875,62.8125 C31.484375,62.8125 31.796875,62.578125 31.796875,62.1875 C31.796875,61.796875 31.5625,61.640625 31.25,61.640625 Z" id="Shape"></path>
                <path d="M30.46875,37.421875 C30.78125,37.421875 31.09375,37.1875 31.09375,36.796875 L31.09375,35.3125 C31.09375,35 30.859375,34.6875 30.46875,34.6875 C30.15625,34.6875 29.84375,34.921875 29.84375,35.3125 L29.84375,36.796875 C29.921875,37.109375 30.15625,37.421875 30.46875,37.421875 Z" id="Shape"></path>
                <path d="M30.46875,59.140625 C30.78125,59.140625 31.09375,58.90625 31.09375,58.515625 L31.09375,57.03125 C31.09375,56.71875 30.859375,56.40625 30.46875,56.40625 C30.15625,56.40625 29.84375,56.640625 29.84375,57.03125 L29.84375,58.59375 C29.921875,58.90625 30.15625,59.140625 30.46875,59.140625 Z" id="Shape"></path>
                <path d="M30.46875,41.71875 C30.78125,41.71875 31.09375,41.484375 31.09375,41.09375 L31.09375,39.609375 C31.09375,39.296875 30.859375,38.984375 30.46875,38.984375 C30.15625,38.984375 29.84375,39.21875 29.84375,39.609375 L29.84375,41.09375 C29.921875,41.484375 30.15625,41.71875 30.46875,41.71875 Z" id="Shape"></path>
                <path d="M30.46875,54.765625 C30.78125,54.765625 31.09375,54.53125 31.09375,54.140625 L31.09375,52.65625 C31.09375,52.34375 30.859375,52.03125 30.46875,52.03125 C30.15625,52.03125 29.84375,52.265625 29.84375,52.65625 L29.84375,54.140625 C29.921875,54.53125 30.15625,54.765625 30.46875,54.765625 Z" id="Shape"></path>
                <path d="M30.46875,46.09375 C30.78125,46.09375 31.09375,45.859375 31.09375,45.46875 L31.09375,43.984375 C31.09375,43.671875 30.859375,43.359375 30.46875,43.359375 C30.15625,43.359375 29.84375,43.59375 29.84375,43.984375 L29.84375,45.46875 C29.921875,45.859375 30.15625,46.09375 30.46875,46.09375 Z" id="Shape"></path>
                <path d="M30.46875,50.46875 C30.78125,50.46875 31.09375,50.234375 31.09375,49.84375 L31.09375,48.4375 C31.09375,48.125 30.859375,47.8125 30.46875,47.8125 C30.15625,47.8125 29.84375,48.046875 29.84375,48.4375 L29.84375,49.921875 C29.921875,50.15625 30.15625,50.46875 30.46875,50.46875 Z" id="Shape"></path>
                <path d="M31.25,31.09375 L30.46875,31.09375 C30.15625,31.09375 29.84375,31.328125 29.84375,31.71875 L29.84375,32.5 C29.84375,32.8125 30.078125,33.125 30.46875,33.125 C30.78125,33.125 31.09375,32.890625 31.09375,32.5 L31.09375,32.265625 L31.25,32.265625 C31.5625,32.265625 31.875,32.03125 31.875,31.640625 C31.875,31.25 31.5625,31.09375 31.25,31.09375 Z" id="Shape"></path>
                <path d="M36.40625,31.09375 L34.6875,31.09375 C34.375,31.09375 34.0625,31.328125 34.0625,31.71875 C34.0625,32.109375 34.296875,32.34375 34.6875,32.34375 L36.40625,32.34375 C36.71875,32.34375 37.03125,32.109375 37.03125,31.71875 C37.03125,31.328125 36.71875,31.09375 36.40625,31.09375 Z" id="Shape"></path>
                <path d="M41.5625,31.09375 L39.84375,31.09375 C39.53125,31.09375 39.21875,31.328125 39.21875,31.71875 C39.21875,32.109375 39.453125,32.34375 39.84375,32.34375 L41.5625,32.34375 C41.875,32.34375 42.1875,32.109375 42.1875,31.71875 C42.1875,31.328125 41.875,31.09375 41.5625,31.09375 Z" id="Shape"></path>
                <path d="M51.796875,31.09375 L50.078125,31.09375 C49.765625,31.09375 49.453125,31.328125 49.453125,31.71875 C49.453125,32.109375 49.6875,32.34375 50.078125,32.34375 L51.796875,32.34375 C52.109375,32.34375 52.421875,32.109375 52.421875,31.71875 C52.421875,31.328125 52.109375,31.09375 51.796875,31.09375 Z" id="Shape"></path>
                <path d="M44.921875,32.265625 L46.640625,32.265625 C46.953125,32.265625 47.265625,32.03125 47.265625,31.640625 C47.265625,31.25 47.03125,31.015625 46.640625,31.015625 L44.921875,31.015625 C44.609375,31.015625 44.296875,31.25 44.296875,31.640625 C44.296875,32.03125 44.609375,32.265625 44.921875,32.265625 Z" id="Shape"></path>
                <path d="M56.015625,31.09375 L55.234375,31.09375 C54.921875,31.09375 54.609375,31.328125 54.609375,31.71875 C54.609375,32.109375 54.84375,32.34375 55.234375,32.34375 L55.46875,32.34375 L55.46875,32.578125 C55.46875,32.890625 55.703125,33.203125 56.09375,33.203125 C56.40625,33.203125 56.71875,32.96875 56.71875,32.578125 L56.71875,31.796875 C56.5625,31.328125 56.328125,31.09375 56.015625,31.09375 Z" id="Shape"></path>
                <path d="M56.015625,34.765625 C55.703125,34.765625 55.390625,35 55.390625,35.390625 L55.390625,36.875 C55.390625,37.1875 55.625,37.5 56.015625,37.5 C56.328125,37.5 56.640625,37.265625 56.640625,36.875 L56.640625,35.390625 C56.5625,35 56.328125,34.765625 56.015625,34.765625 Z" id="Shape"></path>
                <path d="M56.015625,43.4375 C55.703125,43.4375 55.390625,43.671875 55.390625,44.0625 L55.390625,45.546875 C55.390625,45.859375 55.625,46.171875 56.015625,46.171875 C56.328125,46.171875 56.640625,45.9375 56.640625,45.546875 L56.640625,44.0625 C56.5625,43.75 56.328125,43.4375 56.015625,43.4375 Z" id="Shape"></path>
                <path d="M56.015625,39.140625 C55.703125,39.140625 55.390625,39.375 55.390625,39.765625 L55.390625,41.25 C55.390625,41.5625 55.625,41.875 56.015625,41.875 C56.328125,41.875 56.640625,41.640625 56.640625,41.25 L56.640625,39.765625 C56.5625,39.375 56.328125,39.140625 56.015625,39.140625 Z" id="Shape"></path>
                <path d="M56.015625,56.484375 C55.703125,56.484375 55.390625,56.71875 55.390625,57.109375 L55.390625,58.59375 C55.390625,58.90625 55.625,59.21875 56.015625,59.21875 C56.328125,59.21875 56.640625,58.984375 56.640625,58.59375 L56.640625,57.109375 C56.5625,56.796875 56.328125,56.484375 56.015625,56.484375 Z" id="Shape"></path>
                <path d="M56.015625,52.1875 C55.703125,52.1875 55.390625,52.421875 55.390625,52.8125 L55.390625,54.296875 C55.390625,54.609375 55.625,54.921875 56.015625,54.921875 C56.328125,54.921875 56.640625,54.6875 56.640625,54.296875 L56.640625,52.8125 C56.5625,52.421875 56.328125,52.1875 56.015625,52.1875 Z" id="Shape"></path>
                <path d="M56.015625,47.8125 C55.703125,47.8125 55.390625,48.046875 55.390625,48.4375 L55.390625,49.921875 C55.390625,50.234375 55.625,50.546875 56.015625,50.546875 C56.328125,50.546875 56.640625,50.3125 56.640625,49.921875 L56.640625,48.4375 C56.5625,48.046875 56.328125,47.8125 56.015625,47.8125 Z" id="Shape"></path>
            </g>
        </g>
    </g>
</svg>