<?xml version="1.0" encoding="UTF-8"?>
<svg width="82px" height="91px" viewBox="0 0 82 91" version="1.1" xmlns="http://www.w3.org/2000/svg" xmlns:xlink="http://www.w3.org/1999/xlink">
    <!-- Generator: Sketch 48.2 (47327) - http://www.bohemiancoding.com/sketch -->
    <title>customer-3</title>
    <desc>Created with Sketch.</desc>
    <defs></defs>
    <g id="Artboard-5-Copy" stroke="none" stroke-width="1" fill="none" fill-rule="evenodd" transform="translate(-1039.000000, -1778.000000)">
        <g id="customer-3" transform="translate(1039.000000, 1778.000000)">
            <rect id="Rectangle-3" fill="#13AB67" transform="translate(29.195190, 72.048962) rotate(-3.000000) translate(-29.195190, -72.048962) " x="7.96022024" y="54.5613403" width="42.4699395" height="34.9752443"></rect>
            <g id="Group" fill="#000000" fill-rule="nonzero">
                <path d="M15.4893617,25.1702128 C17.0677613,25.1702128 18.393617,23.6172429 18.393617,21.7819149 C18.393617,19.8759973 17.0677613,18.393617 15.4893617,18.393617 C13.9109621,18.393617 12.5851064,19.9465869 12.5851064,21.7819149 C12.5851064,23.6172429 13.9109621,25.1702128 15.4893617,25.1702128 Z M15.4893617,19.4524601 C16.5626735,19.4524601 17.4465772,20.5113032 17.4465772,21.7819149 C17.4465772,23.0525266 16.5626735,24.1113697 15.4893617,24.1113697 C14.41605,24.1113697 13.5321462,23.0525266 13.5321462,21.7819149 C13.5321462,20.4407137 14.41605,19.4524601 15.4893617,19.4524601 Z" id="Shape"></path>
                <path d="M20.8799558,22.2659574 L32.364725,22.2659574 C32.6398093,22.2659574 32.9148936,22.0844415 32.9148936,21.7819149 C32.9148936,21.5398936 32.7085804,21.2978723 32.364725,21.2978723 L20.8799558,21.2978723 C20.6048715,21.2978723 20.3297872,21.4793883 20.3297872,21.7819149 C20.3297872,22.0844415 20.6048715,22.2659574 20.8799558,22.2659574 Z" id="Shape"></path>
                <path d="M40.6595745,25.1702128 C42.2379741,25.1702128 43.5638298,23.6172429 43.5638298,21.7819149 C43.5638298,19.8759973 42.2379741,18.393617 40.6595745,18.393617 C39.0811748,18.393617 37.7553191,19.9465869 37.7553191,21.7819149 C37.7553191,23.6172429 39.0811748,25.1702128 40.6595745,25.1702128 Z M40.6595745,19.4524601 C41.7328862,19.4524601 42.61679,20.5113032 42.61679,21.7819149 C42.61679,23.0525266 41.7328862,24.1113697 40.6595745,24.1113697 C39.5862627,24.1113697 38.7023589,23.0525266 38.7023589,21.7819149 C38.7023589,20.4407137 39.5862627,19.4524601 40.6595745,19.4524601 Z" id="Shape"></path>
                <path d="M47.0182537,22.2659574 L58.5030229,22.2659574 C58.7781072,22.2659574 59.0531915,22.0844415 59.0531915,21.7819149 C59.0531915,21.5398936 58.8468783,21.2978723 58.5030229,21.2978723 L47.0182537,21.2978723 C46.7431694,21.2978723 46.4680851,21.4793883 46.4680851,21.7819149 C46.4680851,22.0844415 46.7431694,22.2659574 47.0182537,22.2659574 Z" id="Shape"></path>
                <path d="M15.4893617,35.8191489 C17.0677613,35.8191489 18.393617,34.2661791 18.393617,32.4308511 C18.393617,30.5249335 17.0677613,29.0425532 15.4893617,29.0425532 C13.9109621,29.0425532 12.5851064,30.595523 12.5851064,32.4308511 C12.5851064,34.2661791 13.9109621,35.8191489 15.4893617,35.8191489 Z M15.4893617,30.1013963 C16.5626735,30.1013963 17.4465772,31.1602394 17.4465772,32.4308511 C17.4465772,33.7014628 16.5626735,34.7603059 15.4893617,34.7603059 C14.41605,34.7603059 13.5321462,33.7014628 13.5321462,32.4308511 C13.5321462,31.0896498 14.41605,30.1013963 15.4893617,30.1013963 Z" id="Shape"></path>
                <path d="M20.8799558,32.9148936 L32.364725,32.9148936 C32.6398093,32.9148936 32.9148936,32.7333777 32.9148936,32.4308511 C32.9148936,32.1888298 32.7085804,31.9468085 32.364725,31.9468085 L20.8799558,31.9468085 C20.6048715,31.9468085 20.3297872,32.1283245 20.3297872,32.4308511 C20.3297872,32.7333777 20.6048715,32.9148936 20.8799558,32.9148936 Z" id="Shape"></path>
                <path d="M40.6595745,35.8191489 C42.2379741,35.8191489 43.5638298,34.2661791 43.5638298,32.4308511 C43.5638298,30.5249335 42.2379741,29.0425532 40.6595745,29.0425532 C39.0811748,29.0425532 37.7553191,30.595523 37.7553191,32.4308511 C37.7553191,34.2661791 39.0811748,35.8191489 40.6595745,35.8191489 Z M40.6595745,30.1013963 C41.7328862,30.1013963 42.61679,31.1602394 42.61679,32.4308511 C42.61679,33.7014628 41.7328862,34.7603059 40.6595745,34.7603059 C39.5862627,34.7603059 38.7023589,33.7014628 38.7023589,32.4308511 C38.7023589,31.0896498 39.5862627,30.1013963 40.6595745,30.1013963 Z" id="Shape"></path>
                <path d="M47.0182537,32.9148936 L58.5030229,32.9148936 C58.7781072,32.9148936 59.0531915,32.7333777 59.0531915,32.4308511 C59.0531915,32.1888298 58.8468783,31.9468085 58.5030229,31.9468085 L47.0182537,31.9468085 C46.7431694,31.9468085 46.4680851,32.1283245 46.4680851,32.4308511 C46.4680851,32.7333777 46.7431694,32.9148936 47.0182537,32.9148936 Z" id="Shape"></path>
                <path d="M15.4893617,47.4361702 C17.0677613,47.4361702 18.393617,45.8832004 18.393617,44.0478723 C18.393617,42.1419548 17.0677613,40.6595745 15.4893617,40.6595745 C13.9109621,40.6595745 12.5851064,42.2125443 12.5851064,44.0478723 C12.5851064,45.8832004 13.9109621,47.4361702 15.4893617,47.4361702 Z M15.4893617,41.647828 C16.5626735,41.647828 17.4465772,42.7066711 17.4465772,43.9772828 C17.4465772,45.2478945 16.5626735,46.3067376 15.4893617,46.3067376 C14.41605,46.3067376 13.5321462,45.2478945 13.5321462,43.9772828 C13.5321462,42.7066711 14.41605,41.647828 15.4893617,41.647828 Z" id="Shape"></path>
                <path d="M20.8799558,44.5319149 L32.364725,44.5319149 C32.6398093,44.5319149 32.9148936,44.3503989 32.9148936,44.0478723 C32.9148936,43.7453457 32.7085804,43.5638298 32.364725,43.5638298 L20.8799558,43.5638298 C20.6048715,43.5638298 20.3297872,43.7453457 20.3297872,44.0478723 C20.3297872,44.3503989 20.6048715,44.5319149 20.8799558,44.5319149 Z" id="Shape"></path>
                <path d="M40.6595745,47.4361702 C42.2379741,47.4361702 43.5638298,45.8832004 43.5638298,44.0478723 C43.5638298,42.1419548 42.2379741,40.6595745 40.6595745,40.6595745 C39.0811748,40.6595745 37.7553191,42.2125443 37.7553191,44.0478723 C37.7553191,45.8832004 39.0811748,47.4361702 40.6595745,47.4361702 Z M40.6595745,41.647828 C41.7328862,41.647828 42.61679,42.7066711 42.61679,43.9772828 C42.61679,45.2478945 41.7328862,46.3067376 40.6595745,46.3067376 C39.5862627,46.3067376 38.7023589,45.2478945 38.7023589,43.9772828 C38.7023589,42.7066711 39.5862627,41.647828 40.6595745,41.647828 Z" id="Shape"></path>
                <path d="M47.0182537,44.5319149 L58.5030229,44.5319149 C58.7781072,44.5319149 59.0531915,44.3503989 59.0531915,44.0478723 C59.0531915,43.7453457 58.8468783,43.5638298 58.5030229,43.5638298 L47.0182537,43.5638298 C46.7431694,43.5638298 46.4680851,43.7453457 46.4680851,44.0478723 C46.4680851,44.3503989 46.7431694,44.5319149 47.0182537,44.5319149 Z" id="Shape"></path>
                <path d="M3.35602837,31.9468085 C3.6141844,31.9468085 3.87234043,31.7276194 3.87234043,31.3623043 L3.87234043,20.9142914 C3.87234043,20.6220393 3.6787234,20.3297872 3.35602837,20.3297872 C3.03333333,20.3297872 2.90425532,20.6220393 2.90425532,20.9142914 L2.90425532,31.3623043 C2.90425532,31.7276194 3.09787234,31.9468085 3.35602837,31.9468085 Z" id="Shape"></path>
                <path d="M3.35602837,37.7553191 C3.6141844,37.7553191 3.87234043,37.5679478 3.87234043,37.2556623 L3.87234043,34.3826356 C3.87234043,34.1328071 3.6787234,33.8829787 3.35602837,33.8829787 C3.03333333,33.8829787 2.90425532,34.1328071 2.90425532,34.4450927 L2.90425532,37.3181194 C2.90425532,37.5679478 3.09787234,37.7553191 3.35602837,37.7553191 Z" id="Shape"></path>
                <path d="M71.1542553,67.7659574 C70.912234,67.7659574 70.6702128,67.9764107 70.6702128,68.3271662 L70.6702128,76.8855998 C70.6702128,77.1662041 70.8517287,77.4468085 71.1542553,77.4468085 C71.3962766,77.4468085 71.6382979,77.2363552 71.6382979,76.8855998 L71.6382979,68.3271662 C71.5777926,68.0465618 71.3962766,67.7659574 71.1542553,67.7659574 Z" id="Shape"></path>
                <path d="M71.1542553,78.4148936 C70.912234,78.4148936 70.6702128,78.6261122 70.6702128,78.9781431 L70.6702128,81.7239845 C70.6702128,82.0056093 70.8517287,82.287234 71.1542553,82.287234 C71.3962766,82.287234 71.6382979,82.0760155 71.6382979,81.7239845 L71.6382979,78.9781431 C71.5777926,78.6965184 71.3962766,78.4148936 71.1542553,78.4148936 Z" id="Shape"></path>
                <path d="M10.4875887,4.66031667 C10.5797872,4.84042553 10.7641844,4.84042553 10.9485816,4.84042553 C11.1329787,4.84042553 11.3173759,4.7503711 11.4095745,4.66031667 C11.6861702,4.39015339 11.6861702,3.93988125 11.4095745,3.66971796 L9.93439716,2.13879268 C9.65780142,1.86862939 9.19680851,1.86862939 8.92021277,2.13879268 C8.64361702,2.40895596 8.64361702,2.8592281 8.92021277,3.12939139 L10.4875887,4.66031667 Z" id="Shape"></path>
                <path d="M14.3599291,7.56457199 C14.4521277,7.74468085 14.6365248,7.74468085 14.820922,7.74468085 C15.0053191,7.74468085 15.1897163,7.65462642 15.2819149,7.56457199 C15.5585106,7.29440871 15.5585106,6.84413657 15.2819149,6.57397328 L13.8067376,5.043048 C13.5301418,4.77288471 13.0691489,4.77288471 12.7925532,5.043048 C12.5159574,5.31321128 12.5159574,5.76348342 12.7925532,6.03364671 L14.3599291,7.56457199 Z" id="Shape"></path>
                <path d="M9.38120567,7.74468085 C9.56560284,7.74468085 9.75,7.65733483 9.84219858,7.5699888 L11.4095745,5.99776036 C11.6861702,5.73572228 11.6861702,5.29899216 11.4095745,5.03695409 C11.1329787,4.77491601 10.6719858,4.77491601 10.3953901,5.03695409 L8.92021277,6.52183651 C8.64361702,6.78387458 8.64361702,7.2206047 8.92021277,7.48264278 C9.01241135,7.65733483 9.19680851,7.74468085 9.38120567,7.74468085 Z" id="Shape"></path>
                <path d="M13.3457447,4.84042553 C13.5301418,4.84042553 13.714539,4.7503711 13.8067376,4.66031667 L15.2819149,3.12939139 C15.5585106,2.8592281 15.5585106,2.40895596 15.2819149,2.13879268 C15.0053191,1.86862939 14.5443262,1.86862939 14.2677305,2.13879268 L12.7925532,3.66971796 C12.5159574,3.93988125 12.5159574,4.39015339 12.7925532,4.66031667 C12.9769504,4.84042553 13.1613475,4.84042553 13.3457447,4.84042553 Z" id="Shape"></path>
                <path d="M1.7748227,59.8411677 C1.86702128,60.0212766 2.05141844,60.0212766 2.2358156,60.0212766 C2.42021277,60.0212766 2.60460993,59.9312222 2.69680851,59.8411677 C2.97340426,59.5710045 2.97340426,59.1207323 2.69680851,58.850569 L1.22163121,57.3196437 C0.945035461,57.0494805 0.484042553,57.0494805 0.207446809,57.3196437 C-0.0691489362,57.589807 -0.0691489362,58.0400792 0.207446809,58.3102425 L1.7748227,59.8411677 Z" id="Shape"></path>
                <path d="M4.71346355,60.2238991 C4.52302058,59.9537358 4.20561563,59.9537358 4.01517265,60.2238991 C3.82472968,60.4940623 3.82472968,60.9443345 4.01517265,61.2144978 L5.0308685,62.7454231 C5.09434949,62.9255319 5.22131148,62.9255319 5.34827346,62.9255319 C5.47523544,62.9255319 5.60219742,62.8354775 5.66567841,62.7454231 C5.85612138,62.4752598 5.85612138,62.0249876 5.66567841,61.7548243 L4.71346355,60.2238991 Z" id="Shape"></path>
                <path d="M2.69680851,61.2144978 C2.97340426,60.9443345 2.97340426,60.4940623 2.69680851,60.2238991 C2.42021277,59.9537358 1.95921986,59.9537358 1.68262411,60.2238991 L0.207446809,61.7548243 C-0.0691489362,62.0249876 -0.0691489362,62.4752598 0.207446809,62.7454231 C0.391843972,62.8354775 0.576241135,62.9255319 0.760638298,62.9255319 C0.945035461,62.9255319 1.12943262,62.8354775 1.22163121,62.7454231 L2.69680851,61.2144978 Z" id="Shape"></path>
                <path d="M5.0308685,57.3196437 L4.01517265,58.850569 C3.82472968,59.1207323 3.82472968,59.5710045 4.01517265,59.8411677 C4.07865364,59.9312222 4.20561563,60.0212766 4.33257761,60.0212766 C4.45953959,60.0212766 4.58650157,59.9312222 4.64998256,59.8411677 L5.66567841,58.3102425 C5.85612138,58.0400792 5.85612138,57.589807 5.66567841,57.3196437 C5.53871643,57.0494805 5.22131148,57.0494805 5.0308685,57.3196437 Z" id="Shape"></path>
                <path d="M69.5042659,38.5207818 L68.0238455,36.9898565 C67.7462667,36.7196932 67.2836353,36.7196932 67.0060565,36.9898565 C66.7284776,37.2600198 66.7284776,37.7102919 67.0060565,37.9804552 L68.4864769,39.5113805 C68.5790031,39.6914894 68.7640557,39.6914894 68.9491082,39.6914894 C69.1341608,39.6914894 69.3192133,39.6014349 69.4117396,39.5113805 C69.7818447,39.2412172 69.7818447,38.7909451 69.5042659,38.5207818 Z" id="Shape"></path>
                <path d="M70.5432508,40.8621969 C70.3528078,40.5920336 70.0354029,40.5920336 69.8449599,40.8621969 C69.6545169,41.1323602 69.6545169,41.5826324 69.8449599,41.8527956 L70.8606557,43.3837209 C70.9241367,43.5638298 71.0510987,43.5638298 71.1780607,43.5638298 C71.3050227,43.5638298 71.4319847,43.4737754 71.4954656,43.3837209 C71.6859086,43.1135576 71.6859086,42.6632855 71.4954656,42.3931222 L70.5432508,40.8621969 Z" id="Shape"></path>
                <path d="M67.9564004,40.8621969 L66.9407046,42.3931222 C66.7502616,42.6632855 66.7502616,43.1135576 66.9407046,43.3837209 C67.0041856,43.4737754 67.1311475,43.5638298 67.2581095,43.5638298 C67.3850715,43.5638298 67.5120335,43.4737754 67.5755145,43.3837209 L68.5912103,41.8527956 C68.7816533,41.5826324 68.7816533,41.1323602 68.5912103,40.8621969 C68.4007674,40.5920336 68.0833624,40.5920336 67.9564004,40.8621969 Z" id="Shape"></path>
                <path d="M72.4085212,36.9898565 C72.1309424,36.7196932 71.668311,36.7196932 71.3907322,36.9898565 L69.9103118,38.5207818 C69.632733,38.7909451 69.632733,39.2412172 69.9103118,39.5113805 C70.0028381,39.6014349 70.1878906,39.6914894 70.3729432,39.6914894 C70.5579957,39.6914894 70.7430483,39.6014349 70.8355745,39.5113805 L72.3159949,37.9804552 C72.6861,37.6202375 72.6861,37.1699654 72.4085212,36.9898565 Z" id="Shape"></path>
                <path d="M70.6688277,19.3617021 C69.6134903,19.3617021 68.7340426,20.2158949 68.7340426,21.2978723 C68.7340426,22.3798498 69.6134903,23.2340426 70.6688277,23.2340426 C71.7241651,23.2340426 72.6036128,22.3798498 72.6036128,21.2978723 C72.6622427,20.2728411 71.7827949,19.3617021 70.6688277,19.3617021 Z M70.6688277,22.436796 C70.0825292,22.436796 69.6134903,21.9242804 69.6134903,21.3548185 C69.6134903,20.7284105 70.0825292,20.2728411 70.6688277,20.2728411 C71.2551262,20.2728411 71.7241651,20.7853567 71.7241651,21.3548185 C71.7827949,21.9242804 71.2551262,22.436796 70.6688277,22.436796 Z" id="Shape"></path>
                <path d="M2.90425532,78.4148936 C1.82227785,78.4148936 0.968085106,79.5212766 0.968085106,80.8351064 C0.968085106,82.1489362 1.82227785,83.2553191 2.90425532,83.2553191 C3.98623279,83.2553191 4.84042553,82.1489362 4.84042553,80.8351064 C4.84042553,79.5212766 3.98623279,78.4148936 2.90425532,78.4148936 Z M2.90425532,82.2180851 C2.33479349,82.2180851 1.82227785,81.5957447 1.82227785,80.8351064 C1.82227785,80.0744681 2.27784731,79.4521277 2.90425532,79.4521277 C3.47371715,79.4521277 3.98623279,80.0744681 3.98623279,80.8351064 C3.98623279,81.5957447 3.53066333,82.2180851 2.90425532,82.2180851 Z" id="Shape"></path>
                <path d="M54.7794499,3.87234043 L65.2631033,3.87234043 C65.5464453,3.87234043 65.8297872,3.69082447 65.8297872,3.38829787 C65.8297872,3.1462766 65.6172807,2.90425532 65.2631033,2.90425532 L54.7794499,2.90425532 C54.4961079,2.90425532 54.212766,3.08577128 54.212766,3.38829787 C54.212766,3.69082447 54.4961079,3.87234043 54.7794499,3.87234043 Z" id="Shape"></path>
                <path d="M69.2180851,3.87234043 L72.1223404,3.87234043 C72.3643617,3.87234043 72.606383,3.69082447 72.606383,3.38829787 C72.606383,3.1462766 72.424867,2.90425532 72.1223404,2.90425532 L69.2180851,2.90425532 C68.9760638,2.90425532 68.7340426,3.08577128 68.7340426,3.38829787 C68.7340426,3.69082447 68.9760638,3.87234043 69.2180851,3.87234043 Z" id="Shape"></path>
                <path d="M71.6382979,6.29255319 C71.6382979,6.05053191 71.4413992,5.80851064 71.1132348,5.80851064 L64.4186801,5.80851064 C64.1561486,5.80851064 63.893617,5.9900266 63.893617,6.29255319 C63.893617,6.53457447 64.0905157,6.77659574 64.4186801,6.77659574 L71.1788677,6.77659574 C71.4413992,6.77659574 71.6382979,6.53457447 71.6382979,6.29255319 Z" id="Shape"></path>
                <path d="M59.6854103,5.80851064 C59.3693009,5.80851064 59.0531915,5.9900266 59.0531915,6.29255319 C59.0531915,6.53457447 59.2902736,6.77659574 59.6854103,6.77659574 L62.2933131,6.77659574 C62.6094225,6.77659574 62.9255319,6.59507979 62.9255319,6.29255319 C62.9255319,6.05053191 62.6884498,5.80851064 62.2933131,5.80851064 L59.6854103,5.80851064 Z" id="Shape"></path>
                <path d="M80.3349329,46.1021947 C79.7133227,45.4161501 78.8845092,45.0731278 77.9866279,45.0731278 C77.9866279,45.0731278 77.9866279,45.0731278 77.9866279,45.0731278 C77.0887465,45.0731278 76.259933,45.4161501 75.569255,46.1021947 L73.2900178,48.4347462 C73.2900178,48.4347462 73.2900178,48.4347462 73.2900178,48.4347462 C73.2900178,48.4347462 73.2900178,48.4347462 73.2900178,48.4347462 L71.4251874,50.355671 C71.4251874,50.355671 71.4251874,50.355671 71.4251874,50.355671 C71.4251874,50.355671 71.4251874,50.355671 71.4251874,50.355671 L64.3112045,57.8335567 L64.3112045,13.5150779 C64.3112045,12.0743843 63.2061198,10.976713 61.8247639,10.976713 L44.7650187,10.976713 L46.1463746,5.69416988 C46.2154424,5.55696096 46.1463746,5.3511476 46.0773068,5.21393868 C45.9391712,5.14533423 45.8010356,5.00812531 45.6629,5.00812531 L38.8251884,5.00812531 C39.0323918,4.52789412 39.1705273,4.04766293 39.1705273,3.49882727 C39.1705273,1.5779025 37.6510359,0 35.7862054,0 C33.921375,0 32.4018835,1.5779025 32.4018835,3.49882727 C32.4018835,4.04766293 32.5400191,4.52789412 32.7472225,5.00812531 L25.9095108,5.00812531 C25.7713752,5.00812531 25.5641718,5.07672977 25.495104,5.21393868 C25.4260362,5.3511476 25.3569684,5.48835651 25.4260362,5.69416988 L26.8073921,10.976713 L10.2311215,10.976713 C8.84976556,10.976713 7.74468085,12.1429888 7.74468085,13.5150779 L7.74468085,84.5206902 C7.74468085,85.9613838 8.84976556,87.1276596 10.2311215,87.1276596 L61.8247639,87.1276596 C63.2061198,87.1276596 64.3112045,85.9613838 64.3112045,84.5206902 L64.3112045,67.7125984 C64.3112045,67.7125984 64.3112045,67.7125984 64.3112045,67.7125984 L80.3349329,50.9731111 C81.647221,49.6696264 81.647221,47.4742838 80.3349329,46.1021947 Z M35.7862054,1.02906685 C37.0984935,1.02906685 38.1345104,2.12673815 38.1345104,3.49882727 C38.1345104,4.04766293 37.927307,4.59649858 37.6510359,5.00812531 L33.9904428,5.00812531 C33.6451038,4.59649858 33.5069682,4.04766293 33.5069682,3.49882727 C33.5069682,2.12673815 34.5429851,1.02906685 35.7862054,1.02906685 Z M26.6692565,6.10579662 L33.7832394,6.10579662 L37.927307,6.10579662 L44.9722221,6.10579662 L43.659934,11.0453175 L27.9815446,11.0453175 L26.6692565,6.10579662 Z M63.2751876,84.5206902 C63.2751876,85.3439437 62.6535775,86.0985927 61.8247639,86.0985927 L10.2311215,86.0985927 C9.40230792,86.0985927 8.78069777,85.4125482 8.78069777,84.5206902 L8.78069777,13.5150779 C8.78069777,12.6918244 9.40230792,12.0057799 10.2311215,12.0057799 L27.4980701,12.0057799 L44.005273,12.0057799 L61.7556961,12.0057799 C62.5845097,12.0057799 63.2061198,12.6918244 63.2061198,13.5150779 L63.2061198,58.8626236 L51.8790015,70.799799 C51.8790015,70.799799 51.8790015,70.8684034 51.8099337,70.8684034 C51.7408659,70.9370079 51.6717981,71.0056123 51.6027304,71.1428212 L49.1162898,77.9346624 C49.047222,78.1404758 49.1162898,78.3462892 49.2544253,78.4834981 C49.3234931,78.5521025 49.4616287,78.620707 49.5997643,78.620707 C49.6688321,78.620707 49.7378999,78.620707 49.8069677,78.5521025 L56.2993404,75.9451332 C56.3684082,75.8765287 56.5065438,75.8079243 56.5065438,75.7393198 C56.5065438,75.7393198 56.5756116,75.6707154 56.5756116,75.6707154 L63.2061198,68.7416653 L63.2061198,84.5206902 L63.2751876,84.5206902 Z M52.4315439,72.0346792 L55.4705268,75.1904842 L50.5667134,77.1800134 L52.4315439,72.0346792 Z M56.2993404,74.6416485 L52.9840862,71.2114257 L63.8967978,59.7544815 C64.1040012,59.685877 64.2421367,59.5486681 64.2421367,59.3428547 L71.7014586,51.5219467 L75.0167127,54.9521695 L56.2993404,74.6416485 Z M75.7764584,54.266125 L72.4612043,50.8359022 L73.6353568,49.6010219 L76.9506109,53.0312448 L75.7764584,54.266125 Z M79.5751871,50.2870665 L77.7103567,52.2765957 L74.3951025,48.8463729 L76.3290008,46.7882392 C76.7434076,46.308008 77.3650177,46.1021947 77.9866279,46.1021947 C77.9866279,46.1021947 77.9866279,46.1021947 77.9866279,46.1021947 C78.608238,46.1021947 79.1607804,46.3766125 79.5751871,46.7882392 C80.4730685,47.7487016 80.4730685,49.3266041 79.5751871,50.2870665 Z" id="Shape"></path>
                <path d="M61.9233593,65.0652763 L60.2053491,66.7628473 C59.9599191,66.9943343 59.9599191,67.3801459 60.2053491,67.6116328 C60.2871591,67.6887951 60.4507791,67.7659574 60.6143992,67.7659574 C60.7780192,67.7659574 60.9416392,67.6887951 61.0234492,67.6116328 L62.7414594,65.9140618 C62.9868894,65.6825749 62.9868894,65.2967633 62.7414594,65.0652763 C62.5778394,64.7566271 62.1687893,64.8337894 61.9233593,65.0652763 Z" id="Shape"></path>
                <path d="M57.9237589,68.9305711 L56.356383,70.5027996 C56.0797872,70.7648376 56.0797872,71.2015677 56.356383,71.4636058 C56.4485816,71.5509518 56.6329787,71.6382979 56.8173759,71.6382979 C57.001773,71.6382979 57.1861702,71.5509518 57.2783688,71.4636058 L58.8457447,69.8913774 C59.1223404,69.6293393 59.1223404,69.1926092 58.8457447,68.9305711 C58.6613475,68.668533 58.2003546,68.668533 57.9237589,68.9305711 Z" id="Shape"></path>
                <path d="M69.6680402,57.2924461 L67.95003,59.007711 C67.7045999,59.2416107 67.7045999,59.6314437 67.95003,59.8653434 C68.03184,59.94331 68.19546,60.0212766 68.35908,60.0212766 C68.5227,60.0212766 68.68632,59.94331 68.7681301,59.8653434 L70.4861402,58.1500785 C70.7315703,57.9161788 70.7315703,57.5263459 70.4861402,57.2924461 C70.3225202,57.0585463 69.9134702,57.0585463 69.6680402,57.2924461 Z" id="Shape"></path>
                <path d="M65.7435879,61.1647865 L64.0726465,62.8800514 C63.8339405,63.1139512 63.8339405,63.5037841 64.0726465,63.7376838 C64.1522151,63.8156504 64.3113524,63.893617 64.4704897,63.893617 C64.6296269,63.893617 64.7887642,63.8156504 64.8683328,63.7376838 L66.6188429,62.022419 C66.8575488,61.7885192 66.8575488,61.3986863 66.6188429,61.1647865 C66.3005683,60.9308868 65.9822938,60.9308868 65.7435879,61.1647865 Z" id="Shape"></path>
                <path d="M14.0913415,59.0531915 C13.8222665,59.0531915 13.5531915,59.2347074 13.5531915,59.537234 C13.5531915,59.7792553 13.7549978,60.0212766 14.0913415,60.0212766 L35.2809989,60.0212766 C35.5500739,60.0212766 35.8191489,59.8397606 35.8191489,59.537234 C35.8191489,59.2952128 35.6173427,59.0531915 35.2809989,59.0531915 L14.0913415,59.0531915 Z" id="Shape"></path>
                <path d="M52.6287784,53.2446809 L14.1006603,53.2446809 C13.8269259,53.2446809 13.5531915,53.4261968 13.5531915,53.7287234 C13.5531915,53.9707447 13.7584923,54.212766 14.1006603,54.212766 L52.697212,54.212766 C52.9709464,54.212766 53.2446809,54.03125 53.2446809,53.7287234 C53.1762472,53.4867021 52.9709464,53.2446809 52.6287784,53.2446809 Z" id="Shape"></path>
                <path d="M47.8421414,63.893617 L14.1153054,63.893617 C13.8342485,63.893617 13.5531915,64.075133 13.5531915,64.3776596 C13.5531915,64.6196809 13.7639842,64.8617021 14.1153054,64.8617021 L47.8421414,64.8617021 C48.1231984,64.8617021 48.4042553,64.6801862 48.4042553,64.3776596 C48.3339911,64.075133 48.1231984,63.893617 47.8421414,63.893617 Z" id="Shape"></path>
                <path d="M42.0503446,68.7340426 L14.0985915,68.7340426 C13.8258915,68.7340426 13.5531915,68.9155585 13.5531915,69.2180851 C13.5531915,69.4601064 13.7577165,69.7021277 14.0985915,69.7021277 L42.0503446,69.7021277 C42.3230447,69.7021277 42.5957447,69.5206117 42.5957447,69.2180851 C42.5957447,68.9155585 42.3230447,68.7340426 42.0503446,68.7340426 Z" id="Shape"></path>
                <path d="M14.118254,75.5106383 L29.4455757,75.5106383 C29.728107,75.5106383 30.0106383,75.3291223 30.0106383,75.0265957 C30.0106383,74.7845745 29.7987398,74.5425532 29.4455757,74.5425532 L14.118254,74.5425532 C13.8357228,74.5425532 13.5531915,74.7240691 13.5531915,75.0265957 C13.5531915,75.3291223 13.8357228,75.5106383 14.118254,75.5106383 Z" id="Shape"></path>
                <path d="M38.1672703,79.3829787 L13.1412404,79.3829787 C12.8631734,79.3829787 12.5851064,79.5644947 12.5851064,79.8670213 C12.5851064,80.1090426 12.7936566,80.3510638 13.1412404,80.3510638 L38.1672703,80.3510638 C38.4453373,80.3510638 38.7234043,80.1695479 38.7234043,79.8670213 C38.7234043,79.5644947 38.514854,79.3829787 38.1672703,79.3829787 Z" id="Shape"></path>
                <path d="M30.5914894,9.68085106 L41.0468085,9.68085106 C41.337234,9.68085106 41.6276596,9.49933511 41.6276596,9.19680851 C41.6276596,8.95478723 41.4098404,8.71276596 41.0468085,8.71276596 L30.5914894,8.71276596 C30.3010638,8.71276596 30.0106383,8.89428191 30.0106383,9.19680851 C30.0832447,9.43882979 30.3010638,9.68085106 30.5914894,9.68085106 Z" id="Shape"></path>
            </g>
        </g>
    </g>
</svg>