<?xml version="1.0" encoding="UTF-8"?>
<svg width="1450px" height="223px" viewBox="0 0 1450 223" version="1.1" xmlns="http://www.w3.org/2000/svg" xmlns:xlink="http://www.w3.org/1999/xlink">
    <!-- Generator: Sketch 48.2 (47327) - http://www.bohemiancoding.com/sketch -->
    <title>logo-long</title>
    <desc>Created with Sketch.</desc>
    <defs></defs>
    <g id="primary-brands" stroke="none" stroke-width="1" fill="none" fill-rule="evenodd">
        <path d="M181.010782,219.258921 L127.156334,219.258921 L82.277628,152.240053 L46.0754717,152.240053 L46.0754717,219.258921 L0,219.258921 L0,9.82495899 L95.7412399,9.82495899 C120.673979,9.82495899 140.071359,15.9084561 153.933962,28.0756328 C167.796565,40.2428096 174.727763,57.1968179 174.727763,78.9381665 L174.727763,79.5365493 C174.727763,96.490812 170.58899,110.303342 162.311321,120.974555 C154.033651,131.645767 143.213005,139.47453 129.849057,144.461078 L181.010782,219.258921 Z M128.053908,81.9300803 L128.053908,81.3316975 C128.053908,71.3586018 124.862566,63.8788923 118.479784,58.8923444 C112.097003,53.9057966 103.221081,51.4125601 91.851752,51.4125601 L46.0754717,51.4125601 L46.0754717,111.550026 L92.7493261,111.550026 C104.118655,111.550026 112.844983,108.857331 118.928571,103.471859 C125.01216,98.0863876 128.053908,90.9058664 128.053908,81.9300803 Z M346.16442,143.563503 C346.16442,145.757585 346.114556,147.652444 346.014825,149.24814 C345.915094,150.843835 345.7655,152.738695 345.566038,154.932776 L233.967655,154.932776 C236.161736,165.304795 240.699427,173.133558 247.580863,178.419299 C254.462299,183.705039 262.989167,186.34787 273.161725,186.34787 C280.741278,186.34787 287.522881,185.051387 293.506739,182.458382 C299.490596,179.865377 305.673823,175.67674 312.056604,169.892344 L338.086253,192.93008 C330.506701,202.30479 321.33159,209.634906 310.560647,214.920646 C299.789704,220.206387 287.124062,222.849218 272.563342,222.849218 C260.595627,222.849218 249.475793,220.854629 239.203504,216.86539 C228.931215,212.876152 220.055293,207.191573 212.575472,199.811482 C205.09565,192.431391 199.261476,183.705063 195.072776,173.632237 C190.884076,163.55941 188.789757,152.339846 188.789757,139.973207 L188.789757,139.374824 C188.789757,128.005495 190.734482,117.234713 194.623989,107.062156 C198.513497,96.8895982 203.948752,88.0136761 210.929919,80.4341234 C217.911086,72.8545707 226.238496,66.870803 235.912399,62.4826409 C245.586302,58.0944788 256.307219,55.9004307 268.075472,55.9004307 C281.43942,55.9004307 293.008037,58.2939378 302.781671,63.0810237 C312.555305,67.8681096 320.683256,74.3006598 327.165768,82.3788673 C333.64828,90.4570749 338.435295,99.7319147 341.526954,110.203665 C344.618614,120.675416 346.16442,131.595792 346.16442,142.965121 L346.16442,143.563503 Z M301.884097,126.509595 C300.487864,116.337038 296.897603,108.109357 291.113208,101.826307 C285.328812,95.5432564 277.649644,92.4017784 268.075472,92.4017784 C258.5013,92.4017784 250.772267,95.4933917 244.88814,101.676711 C239.004014,107.86003 235.164429,116.137576 233.369272,126.509595 L301.884097,126.509595 Z M518.199461,58.8923444 L455.070081,220.455687 L413.781671,220.455687 L350.652291,58.8923444 L398.822102,58.8923444 L434.725067,166.302048 L470.927224,58.8923444 L518.199461,58.8923444 Z M578.336927,41.2400533 L530.466307,41.2400533 L530.466307,0.84921775 L578.336927,0.84921775 L578.336927,41.2400533 Z M577.140162,219.258921 L531.663073,219.258921 L531.663073,58.8923444 L577.140162,58.8923444 L577.140162,219.258921 Z M754.560647,143.563503 C754.560647,145.757585 754.510782,147.652444 754.411051,149.24814 C754.31132,150.843835 754.161726,152.738695 753.962264,154.932776 L642.363881,154.932776 C644.557962,165.304795 649.095653,173.133558 655.977089,178.419299 C662.858525,183.705039 671.385394,186.34787 681.557951,186.34787 C689.137504,186.34787 695.919108,185.051387 701.902965,182.458382 C707.886822,179.865377 714.070049,175.67674 720.45283,169.892344 L746.48248,192.93008 C738.902927,202.30479 729.727817,209.634906 718.956873,214.920646 C708.18593,220.206387 695.520288,222.849218 680.959569,222.849218 C668.991854,222.849218 657.872019,220.854629 647.59973,216.86539 C637.327442,212.876152 628.45152,207.191573 620.971698,199.811482 C613.491876,192.431391 607.657703,183.705063 603.469003,173.632237 C599.280303,163.55941 597.185984,152.339846 597.185984,139.973207 L597.185984,139.374824 C597.185984,128.005495 599.130708,117.234713 603.020216,107.062156 C606.909723,96.8895982 612.344979,88.0136761 619.326146,80.4341234 C626.307313,72.8545707 634.634723,66.870803 644.308625,62.4826409 C653.982528,58.0944788 664.703445,55.9004307 676.471698,55.9004307 C689.835646,55.9004307 701.404264,58.2939378 711.177898,63.0810237 C720.951531,67.8681096 729.079482,74.3006598 735.561995,82.3788673 C742.044507,90.4570749 746.831521,99.7319147 749.923181,110.203665 C753.01484,120.675416 754.560647,131.595792 754.560647,142.965121 L754.560647,143.563503 Z M710.280323,126.509595 C708.88409,116.337038 705.293829,108.109357 699.509434,101.826307 C693.725038,95.5432564 686.04587,92.4017784 676.471698,92.4017784 C666.897526,92.4017784 659.168493,95.4933917 653.284367,101.676711 C647.40024,107.86003 643.560656,116.137576 641.765499,126.509595 L710.280323,126.509595 Z M1003.48787,58.8923444 L953.522911,220.455687 L912.533693,220.455687 L881.716981,122.021724 L850.301887,220.455687 L809.61186,220.455687 L760.245283,58.8923444 L806.320755,58.8923444 L832.051213,156.129541 L862.269542,58.2939617 L901.463612,58.2939617 L931.981132,156.428733 L958.309973,58.8923444 L1003.48787,58.8923444 Z M1165.6496,143.563503 C1165.6496,145.757585 1165.59973,147.652444 1165.5,149.24814 C1165.40027,150.843835 1165.25067,152.738695 1165.05121,154.932776 L1053.45283,154.932776 C1055.64691,165.304795 1060.1846,173.133558 1067.06604,178.419299 C1073.94747,183.705039 1082.47434,186.34787 1092.6469,186.34787 C1100.22645,186.34787 1107.00806,185.051387 1112.99191,182.458382 C1118.97577,179.865377 1125.159,175.67674 1131.54178,169.892344 L1157.57143,192.93008 C1149.99188,202.30479 1140.81677,209.634906 1130.04582,214.920646 C1119.27488,220.206387 1106.60924,222.849218 1092.04852,222.849218 C1080.0808,222.849218 1068.96097,220.854629 1058.68868,216.86539 C1048.41639,212.876152 1039.54047,207.191573 1032.06065,199.811482 C1024.58083,192.431391 1018.74665,183.705063 1014.55795,173.632237 C1010.36925,163.55941 1008.27493,152.339846 1008.27493,139.973207 L1008.27493,139.374824 C1008.27493,128.005495 1010.21966,117.234713 1014.10916,107.062156 C1017.99867,96.8895982 1023.43393,88.0136761 1030.41509,80.4341234 C1037.39626,72.8545707 1045.72367,66.870803 1055.39757,62.4826409 C1065.07148,58.0944788 1075.79239,55.9004307 1087.56065,55.9004307 C1100.9246,55.9004307 1112.49321,58.2939378 1122.26685,63.0810237 C1132.04048,67.8681096 1140.16843,74.3006598 1146.65094,82.3788673 C1153.13346,90.4570749 1157.92047,99.7319147 1161.01213,110.203665 C1164.10379,120.675416 1165.6496,131.595792 1165.6496,142.965121 L1165.6496,143.563503 Z M1121.36927,126.509595 C1119.97304,116.337038 1116.38278,108.109357 1110.59838,101.826307 C1104.81399,95.5432564 1097.13482,92.4017784 1087.56065,92.4017784 C1077.98648,92.4017784 1070.25744,95.4933917 1064.37332,101.676711 C1058.48919,107.86003 1054.6496,116.137576 1052.85445,126.509595 L1121.36927,126.509595 Z M1334.09434,143.563503 C1334.09434,145.757585 1334.04447,147.652444 1333.94474,149.24814 C1333.84501,150.843835 1333.69542,152.738695 1333.49596,154.932776 L1221.89757,154.932776 C1224.09166,165.304795 1228.62935,173.133558 1235.51078,178.419299 C1242.39222,183.705039 1250.91909,186.34787 1261.09164,186.34787 C1268.6712,186.34787 1275.4528,185.051387 1281.43666,182.458382 C1287.42052,179.865377 1293.60374,175.67674 1299.98652,169.892344 L1326.01617,192.93008 C1318.43662,202.30479 1309.26151,209.634906 1298.49057,214.920646 C1287.71962,220.206387 1275.05398,222.849218 1260.49326,222.849218 C1248.52555,222.849218 1237.40571,220.854629 1227.13342,216.86539 C1216.86113,212.876152 1207.98521,207.191573 1200.50539,199.811482 C1193.02557,192.431391 1187.1914,183.705063 1183.0027,173.632237 C1178.814,163.55941 1176.71968,152.339846 1176.71968,139.973207 L1176.71968,139.374824 C1176.71968,128.005495 1178.6644,117.234713 1182.55391,107.062156 C1186.44342,96.8895982 1191.87867,88.0136761 1198.85984,80.4341234 C1205.84101,72.8545707 1214.16842,66.870803 1223.84232,62.4826409 C1233.51622,58.0944788 1244.23714,55.9004307 1256.00539,55.9004307 C1269.36934,55.9004307 1280.93796,58.2939378 1290.71159,63.0810237 C1300.48522,67.8681096 1308.61318,74.3006598 1315.09569,82.3788673 C1321.5782,90.4570749 1326.36521,99.7319147 1329.45687,110.203665 C1332.54853,120.675416 1334.09434,131.595792 1334.09434,142.965121 L1334.09434,143.563503 Z M1289.81402,126.509595 C1288.41778,116.337038 1284.82752,108.109357 1279.04313,101.826307 C1273.25873,95.5432564 1265.57956,92.4017784 1256.00539,92.4017784 C1246.43122,92.4017784 1238.70219,95.4933917 1232.81806,101.676711 C1226.93393,107.86003 1223.09435,116.137576 1221.29919,126.509595 L1289.81402,126.509595 Z M1449.58221,103.471859 L1447.18868,103.471859 C1432.02957,103.471859 1420.1119,108.059414 1411.43531,117.234662 C1402.75872,126.409911 1398.42049,140.671223 1398.42049,160.019029 L1398.42049,219.258921 L1352.9434,219.258921 L1352.9434,58.8923444 L1398.42049,58.8923444 L1398.42049,91.2050129 C1403.00811,80.2346076 1409.29107,71.4584151 1417.26954,64.8761719 C1425.24802,58.2939288 1436.0188,55.3020449 1449.58221,55.9004307 L1449.58221,103.471859 Z" id="logo-long" fill="#13AB67"></path>
    </g>
</svg>